<svg preserveAspectRatio="none" width="100%" height="100%" overflow="visible" style="display: block;" viewBox="0 0 294 60" fill="none" xmlns="http://www.w3.org/2000/svg">
<g id="Vector">
<path d="M31.3684 3.49023C32.0087 3.88452 32.4289 3.59133 32.7291 3.19703C33.0893 2.71174 33.3194 2.13546 33.6395 2.01414C34.3999 1.72094 35.2604 2.08491 35.3004 2.75218C35.4505 4.96632 35.4105 7.88817 35.6106 11.9019C35.7406 14.571 36.0908 15.3394 36.5211 18.696C36.6711 19.8789 36.1008 20.1519 35.3104 20.3945C34.0998 20.7686 33.7196 18.605 33.4194 17.8164C31.9086 13.833 30.0076 8.66665 25.4753 5.71447C22.9339 4.06651 15.7902 1.13455 10.1872 6.60417C6.70538 10.0012 8.09611 15.6124 9.28674 17.0885C13.0687 21.8099 19.0719 22.4064 28.6569 27.4211C36.5311 31.5461 38.8023 39.8162 37.2815 45.7206C35.8407 51.3317 32.589 54.8804 27.2962 57.3776C19.9223 60.8556 8.67642 58.5605 3.6938 55.4567C2.96341 55.0118 2.183 54.7187 2.02292 52.9494C1.87284 51.1801 2.02292 50.2904 1.72276 48.0762C1.27252 44.7095 0.762255 43.921 0.0618864 39.9577C-0.248277 38.2087 0.662202 37.592 1.57268 37.592C3.08348 37.592 3.22355 39.8364 3.54372 40.8474C4.30412 43.2132 8.81649 52.4742 16.8607 55.022C22.9139 56.9429 29.4273 53.6975 31.0882 48.6727C32.2988 44.9926 31.5484 41.7371 29.4273 39.5129C25.5653 35.4688 15.0498 32.2841 8.39627 28.3007C3.6938 25.49 -0.19825 19.2723 2.16299 11.1639C3.97394 4.96632 10.6374 0.982895 16.0803 0.24485C22.4036 -0.614518 28.797 1.87259 31.3684 3.49023Z" fill="#0077CF"/>
<path d="M92.5504 9.93036C92.5504 9.93036 115.252 36.591 121.906 45.215C122.306 45.7003 123.727 47.1865 123.727 45.215C123.727 34.0129 124.177 21.5874 123.277 17.0378C122.366 11.1335 115.833 11.3458 114.502 10.911C113.591 10.6077 113.642 8.99011 115.012 8.98C119.294 8.94967 125.078 9.11143 131.941 9.01033C134.082 8.98 133.872 10.6179 132.812 10.9212C127.969 11.8311 127.309 14.5002 127.209 17.3614C126.758 30.8383 127.059 41.1001 126.908 58.0651C126.908 58.975 124.637 59.622 123.427 58.2572C114.042 46.9034 99.0538 29.1802 91.9401 21.1527C91.79 20.8494 90.8795 20.8494 90.8795 21.456V46.2968C90.5794 58.5605 96.9327 55.5375 99.9643 56.9024C100.715 57.3573 100.895 59.0053 99.5041 59.0053C97.7932 59.0053 94.1613 58.9548 84.106 58.975C82.9554 58.975 82.5652 56.7507 83.3256 56.5991C85.8969 56.3767 86.9475 52.8179 87.2476 46.2968C87.7079 36.2978 87.5478 28.7252 87.5478 19.9496C87.5478 15.5617 85.4267 11.6188 79.0733 11.4671C77.5625 11.3155 77.1123 9.09121 79.0833 9.06088C80.8543 9.03055 83.4957 9.23275 90.3092 9.03055C91.1997 9.00022 91.9201 9.20242 92.5404 9.95058" fill="#0077CF"/>
<path d="M132.352 0.0931033C130.531 0.39641 130.551 2.89363 132.202 3.04528C137.494 3.57102 140.596 5.2392 141.656 11.4469C142.267 15.8347 141.576 33.7095 140.976 46.2765C140.516 53.8491 139.916 55.2847 134.623 56.6496C132.952 56.9529 132.762 58.9547 134.733 58.9851C137.534 59.0255 145.268 58.9547 151.642 58.9446C154.283 58.9446 155.044 57.2562 152.622 56.498C151.262 56.043 145.659 55.6689 145.058 50.0679C145.058 41.2821 145.509 25.9955 145.509 18.5645C145.509 17.1996 146.569 17.8062 146.569 18.1095C149.451 24.4688 159.206 45.9732 164.198 57.0338C164.879 58.5503 165.939 59.1569 166.85 57.1854C170.442 49.3905 180.477 28.8668 185.61 18.1095C185.92 17.5029 186.67 17.1996 186.82 18.1095C187.571 31.4348 187.731 51.736 187.731 51.736C187.731 51.736 187.731 55.214 182.888 56.4272C181.227 56.8821 181.147 58.9952 183.268 58.9851C188.381 58.9547 192.883 58.9547 200.748 58.9345C201.698 58.9345 202.769 57.4382 202.719 56.2452C201.658 57.054 196.966 54.4557 196.826 49.7646C196.215 37.9558 194.704 11.2952 194.704 11.2952C194.854 7.35223 196.365 4.02597 201.218 3.26771C203.339 2.9644 203.639 -0.0383295 201.648 0.0021113C196.655 0.113324 197.156 0.0021113 191.453 0.0021113C190.712 0.0021113 189.442 0.537953 188.531 2.49933C180.817 19.3126 176.425 29.0083 168.861 44.4567C168.561 45.0633 168.07 45.215 167.62 44.4567C160.206 28.4017 154.453 15.2281 148.1 2.81275C147.4 1.44787 146.729 0.173985 145.068 0.0829929C143.978 0.0223316 134.763 -0.0686602 132.352 0.0829929" fill="#0077CF"/>
<path d="M41.4936 50.2095C38.8322 56.6497 36.0107 56.9025 35.6205 57.0743C34.64 57.499 34.8101 58.9548 35.7906 58.9649C43.8449 59.0458 41.6437 58.8841 51.4889 58.9649C53.0197 58.975 53.4099 57.226 51.5689 57.0743C45.1355 56.0936 44.155 53.7076 45.5558 48.6727C46.2561 46.7114 47.6569 43.7794 48.0771 42.9301C48.4973 41.7776 49.908 40.9384 51.1587 40.8677C55.6311 40.8272 58.5726 40.8272 63.7453 40.8272C66.2666 40.8272 67.3672 41.545 68.0876 43.0717C69.3483 45.7307 70.3288 48.3897 71.3093 52.0293C71.5895 52.8685 71.7295 56.5082 67.3872 57.0743C66.2767 57.3574 65.9565 58.9548 67.9175 58.9548C71.7095 58.9548 72.59 58.9649 84.036 58.9649C85.3967 58.9649 85.4167 56.8014 84.036 56.6497C81.5247 56.3666 81.1044 56.7912 78.5831 50.2095C72.71 35.9339 67.8175 24.0342 61.7943 9.61701C61.3741 8.63631 60.3936 8.50488 59.8333 9.75855C52.1392 25.4395 42.7643 46.9944 41.5136 50.2095M57.6021 21.7998C58.1624 20.6776 58.7227 20.8191 59.1429 21.6583C60.9639 25.4395 62.9249 30.1913 65.1561 35.6609C65.8564 37.0561 65.1561 37.3392 64.5958 37.3695C60.2635 37.3796 58.3025 37.3695 52.1492 37.3695C51.2387 37.2684 50.7485 36.7831 51.5889 35.1756C53.4099 31.1113 55.9212 25.4395 57.6021 21.7998Z" fill="#0077CF"/>
<path d="M206.841 50.2095C204.19 56.6497 201.358 56.9024 200.968 57.0743C199.987 57.499 199.897 58.9649 200.878 58.9649C203.949 58.9649 207.031 58.8942 216.826 59.0054C218.357 59.0256 218.757 57.226 216.916 57.0743C210.483 56.0936 209.502 53.7076 210.903 48.6727C211.603 46.7114 213.004 43.7794 213.414 42.9301C213.835 41.7776 215.245 40.9384 216.496 40.8677C220.968 40.8272 223.91 40.8272 229.083 40.8272C231.604 40.8272 232.705 41.545 233.425 43.0717C234.686 45.7307 235.666 48.3897 236.637 52.0293C236.917 52.8685 237.057 56.5082 232.725 57.0743C231.604 57.3574 231.184 58.975 233.145 58.975C236.937 58.975 237.727 58.9043 249.463 58.9649C250.504 58.9649 250.424 56.5789 249.363 56.6497C247.542 56.7912 246.432 56.7912 243.91 50.2095C238.037 35.9339 233.145 24.0342 227.132 9.61701C226.711 8.63632 225.731 8.50488 225.171 9.75855C217.477 25.4395 208.112 46.9944 206.841 50.2095ZM222.929 21.7998C223.49 20.6776 224.05 20.8191 224.46 21.6583C226.281 25.4395 228.242 30.1913 230.473 35.6609C231.174 37.0561 230.473 37.3392 229.923 37.3695C225.581 37.3796 223.63 37.3695 217.466 37.3695C216.556 37.2684 216.066 36.7831 216.906 35.1756C218.727 31.1113 221.248 25.4395 222.919 21.7998" fill="#0077CF"/>
<path d="M260.399 38.2591V46.2866C260.099 58.5503 265.091 55.679 268.113 57.0439C268.873 57.4989 269.043 58.9648 267.653 58.9851C265.642 59.0154 259.148 58.9547 249.603 58.975C248.443 58.975 248.373 56.8114 249.123 56.6597C251.844 56.5889 253.125 54.3243 253.275 46.2967C253.425 36.2978 253.425 28.7252 253.425 19.9495C253.425 15.5617 253.275 12.3062 246.462 11.3963C244.801 11.3963 244.501 9.17206 246.462 9.03052C247.622 8.94964 257.367 9.34394 266.322 9.03052C275.577 8.70699 283.131 12.8117 283.851 21.4661C284.301 26.9155 281.43 32.9816 275.827 34.488C275.217 34.6397 275.067 35.0946 275.527 35.5496C279.769 40.8473 285.512 52.9695 288.694 55.3858C289.914 56.1441 290.965 56.1441 292.776 55.0825C294.287 54.7792 294.287 56.7507 293.386 57.3573C292.176 58.4189 289.914 60.3803 286.273 59.9354C277.798 59.1772 273.556 41.6056 268.113 37.0661C267.052 35.8529 265.081 36.1562 261.75 36.0046C260.539 36.1562 260.389 36.9145 260.389 38.2794M272.645 32.5266C276.657 31.1921 277.338 24.8024 276.427 21.4661C275.067 14.8034 270.224 12.2253 263.711 12.377C262.05 12.4073 260.379 13.2869 260.409 15.5011C260.379 21.6177 260.379 27.2188 260.379 31.2325C260.379 32.3649 260.909 32.8502 262.06 33.0018C265.061 33.4265 271.425 33.1231 272.635 32.5165" fill="#0077CF"/>
<path d="M290.725 48.7839C291.565 48.7839 292.285 49.0872 292.876 49.6837C293.466 50.2802 293.766 51.0081 293.766 51.8574C293.766 52.7066 293.466 53.4244 292.876 54.021C292.285 54.6175 291.565 54.9208 290.725 54.9208C289.784 54.9208 289.014 54.5568 288.413 53.839C287.933 53.2526 287.683 52.5954 287.683 51.8574C287.683 51.1193 287.923 50.4419 288.403 49.8657C289.014 49.1478 289.784 48.794 290.725 48.794M290.725 49.1276C289.984 49.1276 289.344 49.3905 288.814 49.9263C288.283 50.4622 288.013 51.0991 288.013 51.8574C288.013 52.6156 288.283 53.2526 288.814 53.7884C289.344 54.3243 289.974 54.5871 290.725 54.5871C291.475 54.5871 292.105 54.3243 292.636 53.7884C293.166 53.2526 293.426 52.6156 293.426 51.8574C293.426 51.0991 293.166 50.452 292.636 49.9263C292.105 49.3905 291.465 49.1276 290.715 49.1276M291.095 51.8473L291.775 52.8482L291.865 52.9695C292.075 53.2829 292.265 53.4447 292.436 53.4548H292.516C292.566 53.4548 292.596 53.4851 292.596 53.5357C292.596 53.6165 292.456 53.6671 292.195 53.6671C291.895 53.6671 291.625 53.4851 291.385 53.1211L290.705 52.0899C290.675 52.0292 290.615 52.009 290.535 52.009H290.154L290.144 52.0697V52.9695C290.144 53.1717 290.174 53.3031 290.224 53.3638C290.274 53.4244 290.394 53.4649 290.575 53.4851C290.655 53.4851 290.705 53.5255 290.705 53.5761C290.705 53.6368 290.665 53.657 290.585 53.657C290.565 53.657 290.505 53.657 290.434 53.6469C290.364 53.6469 290.264 53.6368 290.114 53.6368H289.734C289.734 53.6368 289.614 53.6368 289.524 53.657C289.454 53.657 289.414 53.657 289.394 53.657C289.324 53.657 289.284 53.6266 289.284 53.5761C289.284 53.5357 289.314 53.5053 289.384 53.4851C289.514 53.4548 289.604 53.3941 289.634 53.3132C289.674 53.2324 289.684 53.0403 289.684 52.7673V50.6846C289.684 50.4419 289.594 50.3004 289.424 50.2802L289.304 50.2599C289.234 50.2498 289.194 50.2094 289.194 50.1588C289.194 50.0982 289.234 50.078 289.314 50.078C289.334 50.078 289.394 50.078 289.494 50.0881C289.544 50.0881 289.624 50.0881 289.724 50.0881C289.804 50.0881 289.934 50.0881 290.124 50.0679C290.264 50.0679 290.384 50.0577 290.485 50.0577C291.305 50.0577 291.705 50.3611 291.705 50.9677C291.705 51.3519 291.505 51.6451 291.095 51.8675M290.294 51.7563H290.585C291.035 51.7563 291.265 51.5338 291.265 51.0991C291.265 50.8767 291.185 50.6846 291.015 50.543C290.845 50.3914 290.635 50.3206 290.395 50.3206C290.234 50.3206 290.154 50.3813 290.154 50.5127V51.6248C290.154 51.6956 290.154 51.736 290.174 51.7462C290.184 51.7563 290.234 51.7664 290.294 51.7664" fill="#0077CF"/>
</g>
</svg>
