<svg preserveAspectRatio="none" width="100%" height="100%" overflow="visible" style="display: block;" viewBox="0 0 55.6863 40" fill="none" xmlns="http://www.w3.org/2000/svg">
<g id="box 1" clip-path="url(#clip0_0_556)">
<path id="Vector" d="M27.8431 0V15.5756L49.9367 8.36338V5.7975L27.8431 0Z" fill="var(--fill-0, #D0A370)"/>
<path id="Vector_2" d="M27.8432 0L5.74961 5.7975V8.36338L27.8432 15.5756V0Z" fill="var(--fill-0, #C39563)"/>
<path id="Vector_3" d="M49.9367 5.81137L27.8431 13.0374V40.0139L49.1989 33.0374C49.6443 32.8988 49.9367 32.4827 49.9367 32.025V5.81137Z" fill="var(--fill-0, #C39563)"/>
<path id="Vector_4" d="M27.8432 13.0236L33.5371 20.1387C33.8573 20.5409 34.4002 20.7073 34.8875 20.5409L55.1851 13.8835C55.6585 13.7309 55.8255 13.1623 55.5192 12.7739L49.9228 5.7975L27.8292 13.0236H27.8432Z" fill="var(--fill-0, #E4BA85)"/>
<path id="Vector_5" d="M5.74961 5.81137L27.8432 13.0374V40.0139L6.48745 33.0374C6.04196 32.8988 5.74961 32.4827 5.74961 32.025V5.81137Z" fill="var(--fill-0, #D0A370)"/>
<path id="Vector_6" d="M27.8432 13.0236L22.1492 20.1387C21.829 20.5409 21.2861 20.7074 20.7988 20.5409L0.487255 13.8974C0.0139216 13.7448 -0.153137 13.1761 0.153137 12.7878L5.74961 5.81137L27.8432 13.0374V13.0236Z" fill="var(--fill-0, #E4BA85)"/>
</g>
<defs>
<clipPath id="clip0_0_556">
<rect width="55.6863" height="40" fill="white"/>
</clipPath>
</defs>
</svg>
