<svg preserveAspectRatio="none" width="100%" height="100%" overflow="visible" style="display: block;" viewBox="0 0 168 34.7263" fill="none" xmlns="http://www.w3.org/2000/svg">
<g id="logo" clip-path="url(#clip0_0_452)">
<path id="Vector" d="M17.604 2.46186C17.967 2.68527 18.1904 2.51771 18.358 2.29431C18.5535 2.01504 18.6931 1.67993 18.8607 1.62408C19.2796 1.45652 19.7822 1.65201 19.7822 2.04297C19.866 3.29965 19.7822 5.22655 19.9498 7.23723C20.0894 8.74524 20.229 9.19206 20.4525 11.091C20.5362 11.7613 20.2011 11.9288 19.7822 12.0684C19.112 12.2639 18.8886 11.0352 18.721 10.5884C17.8833 8.32635 16.8221 5.3941 14.2808 3.69061C12.8566 2.74112 8.86312 1.09348 5.70747 4.19328C3.75264 6.12018 4.53457 9.30376 5.2048 10.1415C7.32718 12.8225 10.6783 13.1576 16.0681 16.034C20.4804 18.3798 21.7371 23.0993 20.8993 26.4504C20.0894 29.634 18.2742 31.6447 15.3141 33.0968C11.181 35.0796 4.89761 33.767 2.07707 32.0077C1.65818 31.7564 1.23929 31.5888 1.15551 30.5835C1.07173 29.5781 1.15551 29.0755 0.987954 27.8188C0.736619 25.8919 0.233949 25.3892 0.0663924 23.183C-0.017386 22.1777 0.401506 21.8426 0.904176 21.8426C1.74196 21.8426 1.82574 23.1272 1.99329 23.6857C2.41219 25.0262 4.95346 30.3042 9.44957 31.7564C12.8286 32.8455 16.4869 31.0024 17.4085 28.1539C18.1067 26.0594 17.6598 24.2163 16.4869 22.9596C14.3366 20.6697 8.44423 18.8545 4.70213 16.5646C2.07707 14.9728 -0.101164 11.4262 1.23929 6.81834C2.24463 3.29965 5.98673 1.03763 9.03067 0.59081C12.6052 0.143992 16.1798 1.5403 17.604 2.46186Z" fill="var(--fill-0, white)"/>
<path id="Vector_2" d="M53.2364 6.00913C53.2364 6.00913 65.9428 20.782 69.6849 25.5853C69.9083 25.8646 70.6902 26.6745 70.6902 25.5853C70.6902 19.3857 70.9415 12.488 70.4389 9.97464C69.9362 6.70728 66.2499 6.81898 65.5239 6.56765C65.0212 6.40009 65.0212 5.42268 65.7752 5.3389C68.1489 5.25512 70.02 5.92535 75.2701 5.3389C76.4709 5.17134 76.3592 6.40009 75.7727 6.56765C73.0639 7.07032 72.6729 8.55041 72.645 10.1422C72.3937 17.6264 72.5612 23.7422 72.4775 33.1533C72.4775 33.656 71.6118 34.0749 70.9415 33.3209C65.6914 27.0375 56.8668 16.7048 52.8733 12.2367C52.7896 12.0691 52.2869 12.0691 52.2869 12.4042V26.1718C52.1193 32.9858 55.666 31.2823 57.3694 32.0363C57.7883 32.2876 57.8721 33.1254 57.1181 33.293C56.029 33.5443 54.0742 32.539 48.6565 33.2092C48.0142 33.293 47.7349 31.8129 48.1538 31.7291C49.606 31.5895 50.1087 29.7463 50.2762 26.1439C50.5276 20.5866 50.4438 16.3977 50.4438 11.5385C50.4438 9.10893 49.243 6.93069 45.6963 6.84691C44.8586 6.76313 44.6072 5.50646 45.6963 5.42268C46.6179 5.42268 48.1538 5.7578 51.9797 5.42268C52.4545 5.36683 52.8733 5.59023 53.2364 6.00913Z" fill="var(--fill-0, white)"/>
<path id="Vector_3" d="M75.5222 0.535407C74.4889 0.702964 74.5168 2.09927 75.4384 2.18305C78.3986 2.49023 80.1579 3.41179 80.7444 6.8467C81.0795 9.27627 80.7164 19.1901 80.3534 26.1716C80.1021 30.3605 79.7669 31.1704 76.7788 31.9244C75.8573 32.0919 75.7735 33.572 76.8626 33.572C78.3148 33.3207 82.783 32.9856 86.3575 33.4044C87.8097 33.8233 88.2286 32.2874 86.8602 31.8406C86.1062 31.5892 82.9505 31.3658 82.6154 28.266C82.6154 23.4069 82.8667 14.9174 82.8667 10.7843C82.8667 10.0303 83.4532 10.3654 83.4532 10.533C85.0729 14.0516 90.5464 25.9761 93.339 32.1198C93.73 32.9576 94.3164 33.2927 94.8191 32.2036C96.8298 27.8751 102.443 16.5091 105.347 10.533C105.515 10.1978 105.934 10.0303 106.017 10.533C106.436 17.9334 106.52 29.1597 106.52 29.1597C106.52 29.1597 106.52 31.0866 103.811 31.7568C102.89 32.0081 102.778 33.4324 103.979 33.4324C106.353 33.2648 108.559 32.5946 113.809 33.181C114.312 33.0135 114.842 32.1478 114.814 31.4775C114.228 31.9244 111.686 30.6677 111.603 28.0706C111.268 21.5358 110.402 6.735 110.402 6.735C110.486 4.55676 111.323 2.71364 114.06 2.29475C115.233 2.12719 115.401 0.786739 114.312 0.619182C111.519 0.786739 110.821 0.954292 108.447 0.702957C108.028 0.675031 107.442 0.786739 106.939 1.87586C102.611 11.2032 100.153 16.565 95.9082 25.1383C95.7407 25.4734 95.4614 25.5572 95.2101 25.1383C91.0491 16.2299 87.8376 8.94117 84.263 2.04342C83.8721 1.28941 83.509 0.535407 82.5595 0.535407C78.231 1.12186 76.6951 0.339924 75.5222 0.535407Z" fill="var(--fill-0, white)"/>
<path id="Vector_4" fill-rule="evenodd" clip-rule="evenodd" d="M22.881 27.9032C21.2613 31.757 19.5578 31.9246 19.3064 32.0083C18.72 32.2597 18.8038 33.1812 19.3902 33.1812C21.2613 33.1812 22.881 32.6786 28.8851 33.3488C29.8066 33.4605 30.0859 32.0921 28.9689 32.0083C25.0592 31.4219 24.4728 29.9977 25.3385 26.9816C25.7574 25.8087 26.5951 24.0494 26.8744 23.5467C27.1257 22.8486 27.9914 22.3459 28.7455 22.318C31.4543 22.2901 33.2416 22.2901 36.3693 22.2901C37.9052 22.2901 38.5754 22.7089 38.9943 23.6305C39.7483 25.2223 40.3627 26.8141 40.9492 28.9923C41.1167 29.495 41.2005 31.6732 38.5754 32.0083C37.9052 32.1759 37.6539 33.3488 38.8268 33.3488C41.1167 33.3488 41.5356 32.5948 48.6568 33.1812C49.2711 33.2371 49.2991 31.8129 48.6568 31.757C47.1208 31.5895 46.8695 31.8408 45.3615 27.9032C41.7869 19.3299 38.8268 12.2087 35.1964 3.5516C34.945 2.96515 34.3307 2.88137 33.9956 3.63538C29.3319 13.0465 23.635 25.9763 22.881 27.9032ZM32.6272 10.8683C32.9623 10.198 33.2974 10.2818 33.5487 10.7845C34.6658 13.0465 35.8387 15.895 37.2071 19.1902C37.626 20.028 37.2071 20.1956 36.8719 20.2235C34.2469 20.2235 33.0461 20.2235 29.3319 20.2235C28.7734 20.1677 28.4662 19.8605 28.9968 18.911C30.0859 16.4535 31.5939 13.0465 32.6272 10.8683Z" fill="var(--fill-0, white)"/>
<path id="Vector_5" fill-rule="evenodd" clip-rule="evenodd" d="M117.328 27.9032C115.709 31.757 114.005 31.9246 113.754 32.0083C113.167 32.2597 113.251 33.1812 113.837 33.1812C115.709 33.1812 117.328 32.6786 123.332 33.3488C124.254 33.4605 124.533 32.0921 123.416 32.0083C119.506 31.4219 118.92 29.9977 119.786 26.9816C120.205 25.8087 121.042 24.0494 121.322 23.5467C121.573 22.8486 122.439 22.3459 123.193 22.318C125.902 22.2901 127.689 22.2901 130.817 22.2901C132.353 22.2901 133.023 22.7089 133.442 23.6305C134.196 25.2223 134.81 26.8141 135.396 28.9923C135.564 29.495 135.648 31.6732 133.023 32.0083C132.353 32.1759 132.101 33.3488 133.274 33.3488C135.564 33.3488 135.983 32.5948 143.104 33.1812C143.718 33.2371 143.746 31.7012 143.104 31.757C142.015 31.8408 141.317 31.8408 139.809 27.9032C136.234 19.3299 133.274 12.2087 129.644 3.5516C129.392 2.96515 128.806 2.88137 128.443 3.63538C123.779 13.0465 118.082 25.9763 117.328 27.9032ZM127.074 10.8683C127.41 10.198 127.745 10.2818 127.996 10.7845C129.085 13.0465 130.286 15.895 131.626 19.1902C132.045 20.028 131.626 20.1956 131.291 20.2235C128.666 20.2235 127.465 20.2235 123.751 20.2235C123.193 20.1677 122.886 19.8605 123.416 18.911C124.533 16.4535 126.069 13.0465 127.074 10.8683Z" fill="var(--fill-0, white)"/>
<path id="Vector_6" fill-rule="evenodd" clip-rule="evenodd" d="M148.771 21.7035V26.1437C148.604 32.9577 151.396 31.338 153.1 32.1199C153.519 32.3712 153.603 33.1252 152.849 33.2928C151.759 33.5441 148.52 32.5388 143.102 33.209C142.46 33.2928 142.181 31.8965 142.6 31.8127C144.136 31.7848 144.722 30.584 144.806 26.1437C144.89 20.6143 144.89 16.3975 144.89 11.5384C144.89 9.10879 144.806 7.2936 140.98 6.79093C140.058 6.79093 139.891 5.39462 140.98 5.39462C141.566 5.22706 144.973 6.06485 151.759 5.56218C156.926 5.14329 161.534 7.57286 161.925 12.3761C162.176 15.3922 160.556 18.7712 157.428 19.609C157.093 19.6928 157.01 19.9441 157.261 20.1955C159.635 23.1277 162.846 29.8579 164.633 31.1983C165.304 31.6172 165.89 31.6172 166.923 31.0308C167.789 30.8632 167.789 31.9523 167.258 32.2875C166.588 32.8739 165.304 33.963 163.265 33.7117C158.518 33.2928 156.144 23.5466 153.1 21.0332C152.513 20.363 151.396 20.5306 149.525 20.4468C148.855 20.5306 148.771 20.9495 148.771 21.7035ZM155.641 18.5199C157.875 17.7938 158.266 14.2472 157.764 12.3761C157.01 8.6899 154.273 7.26567 150.642 7.34945C149.721 7.37737 148.771 7.85211 148.799 9.08086C148.771 12.4599 148.771 15.5876 148.771 17.7938C148.771 18.4082 149.078 18.6874 149.721 18.7712C151.396 19.0226 154.971 18.855 155.641 18.5199Z" fill="var(--fill-0, white)"/>
<path id="Vector_7" d="M163.071 4.58398C164.383 4.58398 165.445 5.64518 165.445 6.9577C165.445 8.27023 164.383 9.33142 163.071 9.33142C161.758 9.33142 160.697 8.27023 160.697 6.9577C160.697 5.64518 161.758 4.58398 163.071 4.58398ZM163.071 8.8846C164.132 8.8846 164.998 8.01889 164.998 6.9577C164.998 5.89651 164.132 5.03079 163.071 5.03079C162.01 5.03079 161.144 5.89651 161.144 6.9577C161.144 8.01889 162.01 8.8846 163.071 8.8846ZM162.149 5.61724H163.155C163.825 5.61724 164.16 5.84066 164.16 6.39918C164.16 6.87392 163.853 7.0694 163.434 7.12525L164.16 8.29815H163.657L162.987 7.15318H162.596V8.29815H162.149V5.61724V5.61724ZM163.127 6.76222C163.434 6.76222 163.685 6.70636 163.685 6.34332C163.685 6.03614 163.378 5.98029 163.127 5.98029H162.596V6.76222H163.127Z" fill="var(--fill-0, white)"/>
</g>
<defs>
<clipPath id="clip0_0_452">
<rect width="168" height="34.7263" fill="white"/>
</clipPath>
</defs>
</svg>
